<mxfile host="app.diagrams.net" modified="2021-01-24T03:47:11.341Z" agent="5.0 (Macintosh; Intel Mac OS X 11_1_0) AppleWebKit/537.36 (KHTML, like Gecko) Chrome/88.0.4324.96 Safari/537.36" etag="hNl-aeNqGLEfRqmJ-VgX" version="14.2.7" type="github">
  <diagram id="4ks3DGEPLyr1VdRXDdb_" name="Page-1">
    <mxGraphModel dx="2694" dy="1230" grid="1" gridSize="10" guides="1" tooltips="1" connect="1" arrows="1" fold="1" page="1" pageScale="1" pageWidth="850" pageHeight="1100" math="0" shadow="0">
      <root>
        <mxCell id="0" />
        <mxCell id="1" parent="0" />
        <mxCell id="LTRvE4BRYarLr9ZSw9s9-1" value="" style="strokeWidth=1;shadow=0;dashed=0;align=center;html=1;shape=mxgraph.mockup.containers.browserWindow;rSize=0;strokeColor=#666666;strokeColor2=#008cff;strokeColor3=#c4c4c4;mainText=,;recursiveResize=0;" parent="1" vertex="1">
          <mxGeometry x="140" y="190" width="530" height="1000" as="geometry" />
        </mxCell>
        <mxCell id="LTRvE4BRYarLr9ZSw9s9-2" value="Page 1" style="strokeWidth=1;shadow=0;dashed=0;align=center;html=1;shape=mxgraph.mockup.containers.anchor;fontSize=17;fontColor=#666666;align=left;" parent="LTRvE4BRYarLr9ZSw9s9-1" vertex="1">
          <mxGeometry x="60" y="12" width="110" height="26" as="geometry" />
        </mxCell>
        <mxCell id="LTRvE4BRYarLr9ZSw9s9-3" value="https://www.draw.io" style="strokeWidth=1;shadow=0;dashed=0;align=center;html=1;shape=mxgraph.mockup.containers.anchor;rSize=0;fontSize=17;fontColor=#666666;align=left;" parent="LTRvE4BRYarLr9ZSw9s9-1" vertex="1">
          <mxGeometry x="130" y="60" width="250" height="26" as="geometry" />
        </mxCell>
        <mxCell id="LTRvE4BRYarLr9ZSw9s9-5" value="" style="verticalLabelPosition=bottom;shadow=0;dashed=0;align=center;html=1;verticalAlign=top;strokeWidth=1;shape=mxgraph.mockup.misc.shoppingCart;strokeColor=#999999;" parent="LTRvE4BRYarLr9ZSw9s9-1" vertex="1">
          <mxGeometry x="480" y="120" width="40" height="40" as="geometry" />
        </mxCell>
        <mxCell id="KfPRQVcdiumOj6spdLpO-41" value="Navbar" style="text;html=1;strokeColor=none;fillColor=none;align=center;verticalAlign=middle;whiteSpace=wrap;rounded=0;" parent="LTRvE4BRYarLr9ZSw9s9-1" vertex="1">
          <mxGeometry x="14.5" y="130" width="40" height="20" as="geometry" />
        </mxCell>
        <mxCell id="KfPRQVcdiumOj6spdLpO-86" value="" style="shape=image;html=1;verticalAlign=top;verticalLabelPosition=bottom;labelBackgroundColor=#ffffff;imageAspect=0;aspect=fixed;image=https://cdn1.iconfinder.com/data/icons/logotypes/32/pinterest-128.png" parent="LTRvE4BRYarLr9ZSw9s9-1" vertex="1">
          <mxGeometry x="371.51" y="830" width="68.5" height="68.5" as="geometry" />
        </mxCell>
        <mxCell id="KfPRQVcdiumOj6spdLpO-85" value="" style="shape=image;html=1;verticalAlign=top;verticalLabelPosition=bottom;labelBackgroundColor=#ffffff;imageAspect=0;aspect=fixed;image=https://cdn4.iconfinder.com/data/icons/social-media-logos-6/512/62-instagram-128.png" parent="LTRvE4BRYarLr9ZSw9s9-1" vertex="1">
          <mxGeometry x="232.01" y="833.25" width="68" height="68" as="geometry" />
        </mxCell>
        <mxCell id="KfPRQVcdiumOj6spdLpO-84" value="" style="shape=image;html=1;verticalAlign=top;verticalLabelPosition=bottom;labelBackgroundColor=#ffffff;imageAspect=0;aspect=fixed;image=https://cdn1.iconfinder.com/data/icons/logotypes/32/facebook-128.png" parent="LTRvE4BRYarLr9ZSw9s9-1" vertex="1">
          <mxGeometry x="100.01" y="833.25" width="62" height="62" as="geometry" />
        </mxCell>
        <mxCell id="KfPRQVcdiumOj6spdLpO-87" value="Copyright 2021" style="text;html=1;strokeColor=none;fillColor=none;align=center;verticalAlign=middle;whiteSpace=wrap;rounded=0;" parent="LTRvE4BRYarLr9ZSw9s9-1" vertex="1">
          <mxGeometry x="174.64" y="914.25" width="190.75" height="20" as="geometry" />
        </mxCell>
        <mxCell id="s-dkbyYEN7iVEajenoXB-1" value="" style="rounded=0;whiteSpace=wrap;html=1;" parent="LTRvE4BRYarLr9ZSw9s9-1" vertex="1">
          <mxGeometry y="310" width="530" height="330" as="geometry" />
        </mxCell>
        <mxCell id="s-dkbyYEN7iVEajenoXB-6" value="Contact Us" style="text;html=1;strokeColor=none;fillColor=none;align=center;verticalAlign=middle;whiteSpace=wrap;rounded=0;" parent="LTRvE4BRYarLr9ZSw9s9-1" vertex="1">
          <mxGeometry x="14.5" y="360" width="105.5" height="20" as="geometry" />
        </mxCell>
        <mxCell id="s-dkbyYEN7iVEajenoXB-2" value="First name" style="html=1;shadow=0;dashed=0;shape=mxgraph.bootstrap.rrect;rSize=5;fillColor=none;strokeColor=#999999;align=left;spacing=15;fontSize=14;fontColor=#6C767D;" parent="LTRvE4BRYarLr9ZSw9s9-1" vertex="1">
          <mxGeometry x="10" y="390" width="230" height="30" as="geometry" />
        </mxCell>
        <mxCell id="s-dkbyYEN7iVEajenoXB-3" value="Last name" style="html=1;shadow=0;dashed=0;shape=mxgraph.bootstrap.rrect;rSize=5;fillColor=none;strokeColor=#999999;align=left;spacing=15;fontSize=14;fontColor=#6C767D;" parent="LTRvE4BRYarLr9ZSw9s9-1" vertex="1">
          <mxGeometry x="260" y="390" width="260" height="30" as="geometry" />
        </mxCell>
        <mxCell id="s-dkbyYEN7iVEajenoXB-4" value="Email" style="html=1;shadow=0;dashed=0;shape=mxgraph.bootstrap.rrect;rSize=5;fillColor=none;strokeColor=#999999;align=left;spacing=15;fontSize=14;fontColor=#6C767D;" parent="LTRvE4BRYarLr9ZSw9s9-1" vertex="1">
          <mxGeometry x="10" y="430" width="510" height="30" as="geometry" />
        </mxCell>
        <mxCell id="s-dkbyYEN7iVEajenoXB-5" value="Message" style="html=1;shadow=0;dashed=0;shape=mxgraph.bootstrap.rrect;rSize=5;fillColor=none;strokeColor=#999999;align=left;spacing=15;fontSize=14;fontColor=#6C767D;" parent="LTRvE4BRYarLr9ZSw9s9-1" vertex="1">
          <mxGeometry x="10" y="470" width="510" height="102" as="geometry" />
        </mxCell>
        <mxCell id="0N-FToIahFQ3Y3kk_wLn-1" value="Submit Button" style="html=1;shadow=0;dashed=0;shape=mxgraph.bootstrap.rrect;rSize=5;fillColor=none;strokeColor=#999999;align=left;spacing=15;fontSize=14;fontColor=#6C767D;" vertex="1" parent="LTRvE4BRYarLr9ZSw9s9-1">
          <mxGeometry x="210.01" y="590" width="120" height="30" as="geometry" />
        </mxCell>
      </root>
    </mxGraphModel>
  </diagram>
</mxfile>
